<svg xmlns="http://www.w3.org/2000/svg" width="85" height="30"><defs><radialGradient id="a" cx="83.657%" cy="0%" r="89.007%" fx="83.657%" fy="0%" gradientTransform="matrix(0 1 -.83874 0 .837 -.837)"><stop offset="0%" stop-color="#00B9FF"/><stop offset="48.26%" stop-color="#0C9AE0"/><stop offset="89.871%" stop-color="#2C488E"/><stop offset="100%" stop-color="#32377D"/></radialGradient></defs><g fill="none" fill-rule="nonzero"><path fill="#FFF" d="M.276 29.935 7.13.276h77.34L79.922 19.96c-1.432 6.152-6.238 9.975-12.238 9.975H.276Z"/><path fill="url(#a)" d="M82.357 1.957h-73.9L2.376 28.25h65.307c5.376 0 9.36-3.341 10.601-8.67l4.072-17.623Z"/><path fill="#FFF" d="M42.924 9.906H46.9l-1.455 6.41c-.921 4.03-3.146 4.88-5.472 3.374l-2.331 2.724c3.127 2.655 10.25 2.153 11.827-4.616L52.054 6.63h-8.39l-.74 3.276ZM64.242 13.6c.778-.594 2.376-6.751-.526-8.46C61.836 4.032 60 6.44 59.83 6.553c-.17.113-3.152.698-2.97 2.879.267 3.341 6.495 4.604 7.38 4.17ZM37.025 8.02c-1.33-.933-3.268-1.387-6.294-1.387H12.178L8.263 23.575h4.367l1.452-6.294h5.177l.752-3.267h-5.16l.942-4.09h14.578c1.928 0 2.783.338 3.612 1.131a3.918 3.918 0 0 1 1.04 2.596 7.744 7.744 0 0 1-.891 3.654c-1.188 2.278-3.17 3.175-5.677 3.175h-1.55l1.865-7.942h-1.188a4.004 4.004 0 0 0-3.89 3.086c-.776 3.3-1.875 7.963-1.875 7.963h5.643c1.25.014 2.498-.071 3.734-.255 4.937-.814 8.388-5.403 8.388-10.079.006-2.23-.775-4.003-2.557-5.233Zm23.37 16.41.954.954a8.249 8.249 0 0 0 2.001-3.953l-.43-.063a6.775 6.775 0 0 1-2.525 3.06v.003ZM72.772 9.536c-.1-.176-.698-3.152-2.875-2.97-1.447.118-2.501 1.345-3.199 2.77l4.675 1.082-1.078 4.672c1.59 0 3.152-.416 3.891-1.663 1.108-1.886-1.3-3.722-1.414-3.891Zm-8.875 5.545c-.594-.778-6.751-2.376-8.46.523-1.11 1.88 1.299 3.716 1.412 3.885.112.17.698 3.152 2.878 2.97 3.347-.27 4.607-6.496 4.158-7.38l.012.002Zm1.485.345c-.778.594-2.376 6.754.523 8.462 1.88 1.108 3.716-1.3 3.885-1.414.17-.113 3.152-.698 2.97-2.875-.267-3.348-6.493-4.607-7.378-4.173Z"/><path fill="#960A0A" d="m68.887 15.006.603.143.962-4.162-4.161-.962-.14.606 3.559.819z"/><path fill="#F00A0A" d="m65.33 14.187.82-3.557 3.557.821-.821 3.557z"/></g></svg>